<?xml version="1.0" encoding="UTF-8" standalone="no"?>
<!DOCTYPE svg PUBLIC "-//W3C//DTD SVG 1.1//EN" "http://www.w3.org/Graphics/SVG/1.1/DTD/svg11.dtd">
<svg version="1.1" xmlns="http://www.w3.org/2000/svg" xmlns:xlink="http://www.w3.org/1999/xlink" preserveAspectRatio="xMidYMid meet" viewBox="0 0 640 640" width="640" height="640"><defs><path d="M0 0L640 0L640 640L0 640L0 0Z" id="b4UQfWtqqG"></path><path d="M371.42 120.86C436.18 68.32 472.16 39.14 479.35 33.3C487.17 26.96 488.37 15.47 482.02 7.65C475.68 -0.17 464.2 -1.36 456.38 4.98C447.28 12.36 401.82 49.23 320 115.61C238.17 49.23 192.71 12.35 183.62 4.98C175.8 -1.36 164.32 -0.17 157.97 7.65C151.63 15.47 152.83 26.95 160.65 33.3C167.84 39.14 203.82 68.32 268.58 120.86C160.62 120.86 100.64 120.86 88.65 120.86C39.77 120.86 0 160.62 0 209.5C0 239.43 0 478.83 0 508.75C0 557.63 39.77 597.4 88.65 597.4C88.87 597.4 90 597.4 92.04 597.4C92.04 611.48 92.04 619.3 92.04 620.86C92.04 630.93 100.2 639.1 110.27 639.1C116.21 639.1 163.69 639.1 169.62 639.1C179.69 639.1 187.86 630.93 187.86 620.86C187.86 619.3 187.86 611.48 187.86 597.4L452.14 597.4C452.14 611.48 452.14 619.3 452.14 620.86C452.14 630.93 460.31 639.1 470.38 639.1C476.31 639.1 523.79 639.1 529.73 639.1C539.8 639.1 547.96 630.93 547.96 620.86C547.96 619.3 547.96 611.48 547.96 597.4C550 597.4 551.13 597.4 551.35 597.4C600.23 597.4 640 557.63 640 508.75C640 478.83 640 239.43 640 209.5C640 160.62 600.23 120.86 551.35 120.86C527.36 120.86 467.38 120.86 371.42 120.86ZM394.44 528.87C363.91 528.87 119.68 528.87 89.15 528.87C78.06 528.87 69.03 519.85 69.03 508.75C69.03 478.83 69.03 239.43 69.03 209.5C69.03 198.41 78.06 189.38 89.15 189.38C119.68 189.38 363.91 189.38 394.43 189.38C405.53 189.38 414.55 198.41 414.55 209.5C414.55 229.45 414.55 329.2 414.55 508.75C408.54 522.17 401.83 528.87 394.44 528.87ZM570.02 232.71C570.02 249.35 556.48 262.89 539.85 262.89C523.21 262.89 509.67 249.35 509.67 232.71C509.67 216.07 523.21 202.53 539.85 202.53C556.48 202.53 570.02 216.07 570.02 232.71ZM570.02 345.37C570.02 362.01 556.48 375.55 539.85 375.55C523.21 375.55 509.67 362.01 509.67 345.37C509.67 328.73 523.21 315.19 539.85 315.19C556.48 315.19 570.02 328.73 570.02 345.37ZM483.08 560.93L483.08 516.17C555.03 516.17 595 516.17 602.99 516.17C599.38 541.44 577.61 560.93 551.35 560.93C542.25 560.93 519.49 560.93 483.08 560.93ZM483.08 479.71L483.08 439.73L603.53 439.73L603.53 479.71L483.08 479.71Z" id="d2QUVCkAIi"></path><path d="M482.81 404.22L604.39 404.22L604.39 363.93L482.81 363.93L482.81 404.22Z" id="b6D72yOlBC"></path><path d="M482.81 296.17L606.55 296.17L606.55 363.93L482.81 363.93L482.81 296.17Z" id="bCgwPxK01"></path><path d="M482.81 285.93L604.39 285.93L604.39 326.22L482.81 326.22L482.81 285.93Z" id="bfKR3FVCz"></path><path d="M522.03 142.15L522.03 143.86L522.02 143.86L522.02 144.17L522.02 144.17L522.01 143.86L522.01 143.86L521.99 143.22L521.99 141.73L522.03 141.73L522.03 142.15ZM522 143.47L522.01 143.47L522.02 143.78L522.02 143.47L522.03 143.47L522.03 141.95L522 141.95L522 143.11L522 143.47ZM522 143L522.01 143L522.01 142.36L522 142.36L522 143ZM522.01 143L522.02 143L522.02 142.36L522.01 142.36L522.01 143Z" id="b4NA13ladV"></path></defs><g><g><g><use xlink:href="#b4UQfWtqqG" opacity="1" fill="#ffffff" fill-opacity="1"></use></g><g><use xlink:href="#d2QUVCkAIi" opacity="1" fill="#09a2ff" fill-opacity="1"></use><g><use xlink:href="#d2QUVCkAIi" opacity="1" fill-opacity="0" stroke="#000000" stroke-width="1" stroke-opacity="0"></use></g></g><g><use xlink:href="#b6D72yOlBC" opacity="1" fill="#ffffff" fill-opacity="1"></use></g><g><use xlink:href="#bCgwPxK01" opacity="1" fill="#09a2ff" fill-opacity="1"></use></g><g><use xlink:href="#bfKR3FVCz" opacity="1" fill="#ffffff" fill-opacity="1"></use></g><g><use xlink:href="#b4NA13ladV" opacity="1" fill="#9d13ba" fill-opacity="1"></use><g><use xlink:href="#b4NA13ladV" opacity="1" fill-opacity="0" stroke="#000000" stroke-width="1" stroke-opacity="0"></use></g></g></g></g></svg>