<?xml version="1.0" encoding="UTF-8" standalone="no"?>
<!DOCTYPE svg PUBLIC "-//W3C//DTD SVG 1.1//EN" "http://www.w3.org/Graphics/SVG/1.1/DTD/svg11.dtd">
<svg version="1.1" xmlns="http://www.w3.org/2000/svg" xmlns:xlink="http://www.w3.org/1999/xlink" preserveAspectRatio="xMidYMid meet" viewBox="0 0 640 640" width="20px" height="20px"><defs><path d="M360.82 6.56C351.34 16.04 275.5 91.88 266.02 101.36C257.27 110.11 257.27 124.34 266.02 133.09C267.44 134.51 274.54 141.61 287.31 154.38L234.68 207C184.93 201.52 157.29 198.47 151.77 197.86C147.85 197.47 143.93 197.21 140.14 197.21C111.81 197.21 85.04 208.31 65.06 228.28C62.34 231 40.62 252.73 37.9 255.45C29.15 264.19 29.15 278.43 37.9 287.18C47.35 296.62 94.57 343.85 179.58 428.85C75.85 532.59 18.22 590.21 6.69 601.74C-2.06 610.49 -2.06 624.72 6.69 633.47C11 637.78 16.75 640 22.49 640C28.24 640 33.98 637.78 38.29 633.47C49.83 621.94 107.5 564.26 211.31 460.45C296.32 545.46 343.54 592.69 352.99 602.13C357.3 606.44 363.04 608.66 368.79 608.66C374.53 608.66 380.28 606.44 384.59 602.13C387.3 599.42 409.03 577.69 411.75 574.97C434.73 551.99 445.83 520.39 442.17 488.27C441.56 482.74 438.52 455.1 433.03 405.35L485.66 352.73C498.35 365.42 505.4 372.47 506.81 373.88C515.56 382.63 529.79 382.63 538.54 373.88C548.02 364.4 623.86 288.56 633.34 279.08C637.52 274.9 639.87 269.16 639.87 263.28C639.87 257.4 637.52 251.66 633.34 247.48C617.29 231.42 537.03 151.11 392.55 6.56C377.23 0.73 366.65 0.73 360.82 6.56ZM501.72 305.2C493.36 296.84 478.47 296.84 469.99 305.2C462.39 312.81 401.59 373.71 393.99 381.32C389.16 386.15 386.81 392.81 387.59 399.6C388.62 408.95 396.88 483.75 397.91 493.1C400 511.77 393.6 530.05 380.28 543.24C379.52 544 375.73 547.79 368.92 554.6L85.43 271.11C92.25 264.38 96.03 260.63 96.79 259.88C109.98 246.7 128.39 240.3 146.93 242.26C156.3 243.29 231.2 251.54 240.56 252.57C247.35 253.36 254.01 251.01 258.84 246.17C266.44 238.57 327.24 177.78 334.84 170.18C343.59 161.43 343.59 147.2 334.84 138.45C333.42 137.03 326.32 129.93 313.55 117.16L376.62 54.09L585.94 263.41L522.87 326.48C510.18 313.71 503.13 306.61 501.72 305.2Z" id="a8urv6u12S"></path></defs><g><g><g><use xlink:href="#a8urv6u12S" opacity="1" fill="#cacaca" fill-opacity="1"></use><g><use xlink:href="#a8urv6u12S" opacity="1" fill-opacity="0" stroke="#000000" stroke-width="1" stroke-opacity="0"></use></g></g></g></g></svg>